<svg width="10" height="18" viewBox="0 0 10 18" fill="none" xmlns="http://www.w3.org/2000/svg">
<path d="M9.39301 17.3965C9.60658 17.1669 9.72656 16.8556 9.72656 16.5309C9.72656 16.2063 9.60658 15.895 9.39301 15.6654L3.36311 9.18549L9.39301 2.70559C9.60053 2.4747 9.71536 2.16545 9.71276 1.84446C9.71017 1.52347 9.59036 1.21642 9.37914 0.989431C9.16791 0.762447 8.88218 0.633695 8.58348 0.630906C8.28478 0.628116 7.99701 0.751513 7.78215 0.974518L0.946813 8.31996C0.733241 8.54954 0.613264 8.86087 0.613264 9.18549C0.613264 9.51012 0.733241 9.82145 0.946813 10.051L7.78215 17.3965C7.99579 17.626 8.2855 17.7549 8.58758 17.7549C8.88966 17.7549 9.17938 17.626 9.39301 17.3965Z" fill="#402813"/>
</svg>
